#!OML:ASF I:\golf\golf\golf 2\Subject 1\2002-09-07\Subject1.ASF
:FULLY-SPECIFIED
:DEGREES
396
root 1.79087 13.024 -3.52305 23.2244 -1.36308 -4.42355
lowerback 40.5049 9.22604 6.07759
upperback 12.239 13.6341 4.57599
thorax -5.3556 6.2955 -3.30245
lowerneck -2.73552 -9.29113 1.52874
upperneck 17.3541 -11.3928 -6.63314
head 5.18004 -5.71397 -2.84635
rclavicle -4.77083e-014 5.56597e-014
rhumerus 31.4498 -21.3295 -82.4661
rradius 23.1347
rwrist -12.8556
rhand -33.7914 11.5712
rfingers 7.12502
rthumb -6.97821 -18.2938
lclavicle -4.77083e-014 5.56597e-014
lhumerus -27.0135 -55.5509 94.7783
lradius 98.0591
lwrist -5.81049
lhand -36.485 9.25192
lfingers 7.12502
lthumb -9.57775 39.0142
rfemur -82.9303 -37.5811 41.6831
rtibia 112.154
rfoot -26.7924 2.53809
rtoes -10.7569
lfemur -89.3421 7.36663 -22.2738
ltibia 99.6865
lfoot -25.9568 -5.76049
ltoes -7.26175
397
root 1.78746 13.1479 -3.52363 23.4681 -1.31978 -4.35743
lowerback 40.2718 9.21922 5.77067
upperback 12.1853 13.5102 4.5684
thorax -5.41285 6.23209 -3.11225
lowerneck -2.8359 -9.21702 1.42413
upperneck 17.2882 -11.2881 -6.65971
head 5.18562 -5.67513 -2.83792
rclavicle -5.725e-014 -1.11319e-014
rhumerus 30.8801 -20.459 -81.9584
rradius 23.4311
rwrist -12.8189
rhand -32.3445 10.9078
rfingers 7.12502
rthumb -5.58136 -18.9987
lclavicle -5.725e-014 -1.11319e-014
lhumerus -26.8398 -55.0359 94.8841
lradius 97.5257
lwrist -5.62292
lhand -36.2596 9.12077
lfingers 7.12502
lthumb -9.36032 38.8929
rfemur -82.4565 -37.1153 41.6878
rtibia 110.883
rfoot -26.6614 1.94956
rtoes -11.4483
lfemur -88.7364 7.24748 -22.2635
ltibia 98.4382
lfoot -25.6466 -5.81765
ltoes -6.67415
398
root 1.78564 13.2106 -3.5216 23.967 -1.2597 -4.26251
lowerback 39.6541 9.21333 5.41746
upperback 12.1422 13.3568 4.55595
thorax -5.34635 6.16738 -2.85648
lowerneck -3.03045 -9.1298 1.31966
upperneck 17.2965 -11.1592 -6.71789
head 5.22898 -5.62758 -2.84608
rclavicle -1.145e-013 1.43125e-014
rhumerus 30.2467 -19.2475 -81.214
rradius 23.8379
rwrist -13.1797
rhand -31.1701 10.243
rfingers 7.12502
rthumb -4.44735 -19.6903
lclavicle -1.145e-013 1.43125e-014
lhumerus -26.6422 -54.5607 94.9904
lradius 97.1517
lwrist -4.92624
lhand -35.7272 9.46646
lfingers 7.12502
lthumb -8.84655 39.261
rfemur -82.6528 -36.6015 41.8032
rtibia 110.03
rfoot -26.5246 1.85498
rtoes -11.0527
lfemur -88.8311 7.03302 -22.3017
ltibia 97.4955
lfoot -25.1584 -5.92152
ltoes -6.26329
399
root 1.78017 13.3367 -3.52119 24.1565 -1.22318 -4.27103
lowerback 39.425 9.22058 5.12255
upperback 12.1346 13.2575 4.59534
thorax -5.35718 6.11689 -2.62641
lowerneck -3.27283 -9.02073 1.21104
upperneck 17.2633 -11.0039 -6.77195
head 5.2692 -5.5687 -2.85209
rclavicle -5.08889e-014 6.36111e-014
rhumerus 29.626 -17.8743 -80.345
rradius 24.2577
rwrist -13.6336
rhand -30.3715 10.1843
rfingers 7.12502
rthumb -3.67626 -19.7637
lclavicle -5.08889e-014 6.36111e-014
lhumerus -26.4138 -54.0729 95.062
lradius 96.5924
lwrist -4.50173
lhand -35.4555 9.34885
lfingers 7.12502
lthumb -8.5844 39.1543
rfemur -81.9815 -36.1403 41.778
rtibia 108.759
rfoot -26.4802 1.99426
rtoes -11.1163
lfemur -88.137 6.99654 -22.2202
ltibia 96.1865
lfoot -24.8527 -5.94713
ltoes -6.87757
400
root 1.77472 13.4769 -3.51699 24.1428 -1.20089 -4.32214
lowerback 39.4274 9.20947 4.86157
upperback 12.1316 13.1576 4.64889
thorax -5.43136 6.05961 -2.41874
lowerneck -3.53549 -8.88246 1.0595
upperneck 17.2623 -10.8112 -6.77208
head 5.3304 -5.49119 -2.83595
rclavicle -1.27222e-014 7.15625e-014
rhumerus 29.0409 -16.5013 -79.5325
rradius 24.4792
rwrist -13.4974
rhand -29.8211 10.6845
rfingers 7.12502
rthumb -3.1447 -19.2721
lclavicle -1.27222e-014 7.15625e-014
lhumerus -26.2311 -53.5397 95.1546
lradius 95.9552
lwrist -4.24177
lhand -35.2859 9.23802
lfingers 7.12502
lthumb -8.42068 39.0502
rfemur -80.94 -35.7942 41.6338
rtibia 107.392
rfoot -26.3806 2.1574
rtoes -10.245
lfemur -87.1039 7.02709 -22.0806
ltibia 94.8055
lfoot -24.5878 -6.00023
ltoes -6.66865
401
root 1.77268 13.6113 -3.51505 24.2739 -1.13521 -4.40795
lowerback 39.2383 9.15624 4.63916
upperback 12.103 13.0182 4.70097
thorax -5.46618 5.98928 -2.20037
lowerneck -3.69307 -8.75029 0.839722
upperneck 17.1878 -10.627 -6.73366
head 5.35691 -5.4181 -2.78923
rclavicle -8.5875e-014 -1.59028e-015
rhumerus 28.3978 -14.9864 -78.6881
rradius 24.7107
rwrist -13.1847
rhand -29.1859 10.3873
rfingers 7.12502
rthumb -2.53122 -19.5774
lclavicle -8.5875e-014 -1.59028e-015
lhumerus -26.038 -53.0148 95.2206
lradius 95.4013
lwrist -3.64463
lhand -34.8771 9.43788
lfingers 7.12502
lthumb -8.02612 39.2655
rfemur -80.1877 -35.4073 41.6692
rtibia 106.014
rfoot -26.1158 2.0424
rtoes -8.92141
lfemur -86.3137 7.00442 -21.9119
ltibia 93.4202
lfoot -24.1698 -6.11674
ltoes -6.11663
402
root 1.77108 13.7402 -3.51442 24.4713 -1.07851 -4.44231
lowerback 38.958 9.10525 4.34258
upperback 12.0783 12.8529 4.74908
thorax -5.48048 5.90859 -1.93292
lowerneck -3.72989 -8.62854 0.707735
upperneck 16.8944 -10.4557 -6.83033
head 5.28066 -5.3541 -2.78201
rclavicle -9.22361e-014 1.90833e-014
rhumerus 27.6987 -13.2263 -77.7175
rradius 25.1033
rwrist -13.1444
rhand -28.1788 9.63559
rfingers 7.12502
rthumb -1.55865 -20.3385
lclavicle -9.22361e-014 1.90833e-014
lhumerus -25.7185 -52.4711 95.1712
lradius 94.9171
lwrist -3.058
lhand -34.099 10.185
lfingers 7.12502
lthumb -7.27517 40.0399
rfemur -79.5782 -35.0361 41.7473
rtibia 104.652
rfoot -25.8809 1.63895
rtoes -8.90075
lfemur -85.6469 6.92383 -21.7922
ltibia 92.0673
lfoot -23.7596 -6.19336
ltoes -5.98558
